# xmcd
#
# Track frame offsets:
#	150
#	12830
#	25707
#	37895
#	50795
#	62527
#	73122
#	84795
#	100347
#	113585
#	127067
#	138567
#	150335
#	161997
#	173315
#	186207
#	197575
#	210590
#	219675
#	231887
#
# Disc length: 3250
#
# Revision: 2
# Processed by: cddbd v1.5.1PL0 Copyright (c) Steve Scherf et al.
# Submitted via: audiograbber 1.80
# Normalized: r1:DSETVAR1
#
DISCID=0b0cb014
DTITLE=Various Artist - Hank Williams Songbook
DYEAR=1900
DGENRE=
TTITLE0=Molly O'day - When God comes and gathers his jewels
TTITLE1=Molly O'day - On the evening train
TTITLE2=Roy Acuff - I saw the light
TTITLE3=Molly O'day - I don't care
TTITLE4=Curley Williams - No, not now
TTITLE5=Carl Smith - There's nothing as sweet as my baby
TTITLE6=Curley Williams - Honey, do you love me, huh?
TTITLE7=George Morgan - A stranger in the night
TTITLE8=Carl Smith - Me and my broken heart
TTITLE9=Ray Price - Weary blues from heaven
TTITLE10='Little' Jimmie Dickens - I wish you didn't love me so much
TTITLE11=Ray Price - I lost the only love I knew
TTITLE12=Curley Williams - When you're tired of breaking other hearts
TTITLE13=Ray Price - I can't escape from you
TTITLE14=Anita Carter - There'll be no teardrops tonight
TTITLE15=Marty Robins - Long gone lonesome blues
TTITLE16='Little' Jimmie Dickens - I Can't Help It If I'm Still In Love With You
TTITLE17=Marty Robins - Moanin' the blues
TTITLE18=Marijohn Wilkin - Cold cold heart
TTITLE19=Johnny Cash - I'm so lonesome I could cry
EXTD=
EXTT0=
EXTT1=
EXTT2=
EXTT3=
EXTT4=
EXTT5=
EXTT6=
EXTT7=
EXTT8=
EXTT9=
EXTT10=
EXTT11=
EXTT12=
EXTT13=
EXTT14=
EXTT15=
EXTT16=
EXTT17=
EXTT18=
EXTT19=
PLAYORDER=
